# xmcd CD database file
#
# Track frame offsets:
#	150
#	27381
#	47896
#	64440
#	81852
#	99051
#	112254
#	137472
#	159898
#
# Disc length: 2402 seconds
#
# Revision: 1
# Processed by: cddbd v1.5.2PL0 Copyright (c) Steve Scherf et al.
# Submitted via: CDex 1.51
#
DISCID=71096009
DTITLE=Nublues - Dreams Of A Blues Man
DYEAR=2004
DGENRE=Blues
TTITLE0=Blues Man On The Run
TTITLE1=Missy Dee
TTITLE2=Swamp Thang
TTITLE3=Mississipi Rising
TTITLE4=Conversation Breakdown
TTITLE5=Hold Over Me
TTITLE6=Memory Of A Good Time
TTITLE7=Contradiction
TTITLE8=Dreams Of A Blues Man
EXTD=YEAR: 2004
EXTT0=
EXTT1=
EXTT2=
EXTT3=
EXTT4=
EXTT5=
EXTT6=
EXTT7=
EXTT8=
PLAYORDER=
